ply
format ascii 1.0
comment VCGLIB generated
element vertex 20
property float x
property float y
property float z
property float nx
property float ny
property float nz
property float u
property float v
element face 12
property list uchar int vertex_indices
end_header
-0.5 -0.5 0.5 -2 -2 1 0 0
-0.5 0.5 0.5 -1 1 2 0 1
0.5 -0.5 0.5 1 -1 2 1 0
0.5 0.5 0.5 2 2 1 1 1
0.5 -0.5 -0.5 2 -2 -1 1 0
0.5 0.5 -0.5 1 1 -2 1 1
-0.5 -0.5 -0.5 -1 -1 -2 1 0
-0.5 0.5 -0.5 -2 2 -1 1 1
0.5 0.5 0.5 2 2 1 0 1
0.5 -0.5 0.5 1 -1 2 0 0
0.5 0.5 -0.5 1 1 -2 0 1
0.5 -0.5 -0.5 2 -2 -1 0 0
-0.5 -0.5 0.5 -2 -2 1 1 0
-0.5 0.5 0.5 -1 1 2 1 1
-0.5 0.5 -0.5 -2 2 -1 0 1
-0.5 -0.5 -0.5 -1 -1 -2 0 0
0.5 0.5 0.5 2 2 1 1 0
-0.5 0.5 0.5 -1 1 2 0 0
0.5 -0.5 0.5 10 -1 2 1 1
-0.5 -0.5 0.5 -2 -2 1 0 1
3 2 3 1 
3 2 1 0 
3 4 5 8 
3 4 8 9 
3 6 7 10 
3 6 10 11 
3 12 13 14 
3 12 14 15 
3 16 5 14 
3 16 14 17 
3 4 18 19 
3 4 19 15 
